<svg width="20" height="20" viewBox="0 0 20 20" fill="none" xmlns="http://www.w3.org/2000/svg">
<path fill-rule="evenodd" clip-rule="evenodd" d="M2.41675 10C2.41675 9.19329 2.9352 7.70472 4.18615 6.40565C5.40728 5.13755 7.29896 4.08334 10.0001 4.08334C12.7012 4.08334 14.5929 5.13755 15.814 6.40565C17.065 7.70472 17.5834 9.19329 17.5834 10C17.5834 10.8067 17.065 12.2953 15.814 13.5944C14.5929 14.8624 12.7012 15.9167 10.0001 15.9167C7.29896 15.9167 5.40728 14.8624 4.18615 13.5944C2.9352 12.2953 2.41675 10.8067 2.41675 10ZM10.0001 2.58334C6.86787 2.58334 4.59288 3.82078 3.10567 5.36519C1.64829 6.87862 0.916748 8.72338 0.916748 10C0.916748 11.2766 1.64829 13.1214 3.10567 14.6348C4.59288 16.1792 6.86787 17.4167 10.0001 17.4167C13.1323 17.4167 15.4073 16.1792 16.8945 14.6348C18.3519 13.1214 19.0834 11.2766 19.0834 10C19.0834 8.72338 18.3519 6.87862 16.8945 5.36519C15.4073 3.82078 13.1323 2.58334 10.0001 2.58334ZM8.25 10C8.25 9.0335 9.03351 8.25 10 8.25C10.9665 8.25 11.75 9.0335 11.75 10C11.75 10.9665 10.9665 11.75 10 11.75C9.03351 11.75 8.25 10.9665 8.25 10ZM10 6.75C8.20508 6.75 6.75 8.20508 6.75 10C6.75 11.7949 8.20508 13.25 10 13.25C11.7949 13.25 13.25 11.7949 13.25 10C13.25 8.20508 11.7949 6.75 10 6.75Z" fill="#7F8084"/>
</svg>
